<?xml version="1.0" standalone="no"?>
<!DOCTYPE svg PUBLIC "-//W3C//DTD SVG 20010904//EN"
 "http://www.w3.org/TR/2001/REC-SVG-20010904/DTD/svg10.dtd">
<svg version="1.0" xmlns="http://www.w3.org/2000/svg"
 width="1024.000000pt" height="1024.000000pt" viewBox="0 0 1024.000000 1024.000000"
 preserveAspectRatio="xMidYMid meet">
<metadata>
Created by potrace 1.16, written by Peter Selinger 2001-2019
</metadata>
<g transform="translate(0.000000,1024.000000) scale(0.100000,-0.100000)"
fill="#000000" stroke="none">
<path d="M4725 9834 c-480 -37 -1029 -174 -1495 -376 -838 -363 -1570 -985
-2072 -1758 -157 -242 -335 -584 -432 -831 -171 -438 -277 -896 -316 -1373
-14 -168 -14 -595 -1 -761 93 -1111 553 -2122 1328 -2916 806 -825 1863 -1317
3034 -1410 293 -23 769 -3 1084 47 657 102 1305 352 1868 720 580 379 1085
907 1447 1510 349 583 564 1218 645 1909 22 188 31 674 16 875 -72 937 -388
1772 -954 2524 -133 177 -253 314 -421 481 -679 677 -1566 1138 -2496 1300
-293 50 -373 57 -790 60 -217 1 -417 1 -445 -1z m751 -964 c497 -40 1037 -211
1504 -478 904 -515 1550 -1370 1795 -2374 83 -341 109 -585 102 -963 -6 -298
-17 -407 -67 -661 -196 -989 -785 -1863 -1630 -2417 -489 -320 -1030 -518
-1625 -594 -197 -25 -663 -25 -860 0 -494 63 -960 213 -1380 443 -165 91 -439
275 -565 381 -142 119 -457 435 -556 558 -525 658 -809 1430 -831 2265 -23
846 242 1677 751 2355 240 319 649 697 986 912 485 309 1108 525 1645 572 144
12 580 13 731 1z"/>
<path d="M4035 7671 c-153 -6 -163 -7 -225 -37 -76 -37 -142 -99 -177 -168
-47 -92 -83 -354 -83 -602 l0 -132 -235 -3 c-301 -5 -280 11 -280 -203 0 -138
2 -156 19 -175 36 -40 104 -51 313 -51 l193 0 0 -89 0 -89 -222 -4 c-239 -6
-284 -14 -294 -53 -3 -12 -4 -88 -2 -169 3 -142 4 -146 29 -172 33 -33 109
-43 332 -44 l157 0 0 -1400 0 -1400 78 -102 c131 -173 225 -223 405 -216 80 3
101 7 159 36 127 62 219 197 239 347 6 45 12 445 16 923 l6 842 361 0 c886 0
1240 72 1566 316 128 97 256 305 334 544 l34 105 203 6 c112 3 205 6 206 7 18
20 28 99 28 212 0 152 -6 184 -36 201 -12 6 -93 13 -180 16 l-159 6 6 66 c4
36 13 73 20 80 16 17 96 29 201 30 88 1 100 5 120 45 19 35 31 241 19 320 -7
42 -10 46 -44 56 -20 5 -107 10 -193 10 l-157 0 -16 73 c-31 137 -141 350
-248 479 -135 162 -345 285 -606 354 -93 25 -113 26 -492 34 -430 10 -1141 10
-1395 1z m1315 -715 c183 -30 271 -61 388 -139 64 -43 74 -59 45 -73 -10 -5
-314 -10 -675 -12 l-658 -3 0 127 0 126 403 -5 c299 -3 426 -9 497 -21z m348
-673 l232 -6 0 -79 0 -78 -740 0 -740 0 0 85 0 85 508 0 c279 0 612 -3 740 -7z
m77 -654 c-103 -105 -228 -163 -415 -194 -101 -17 -477 -34 -747 -35 l-163 0
0 140 0 140 687 0 687 0 -49 -51z"/>
</g>
</svg>
